<?xml version="1.0" standalone="no"?>
<svg xmlns:xlink="http://www.w3.org/1999/xlink" id="wave" style="transform:rotate(180deg); transition: 0.3s" viewBox="0 0 1440 490" version="1.1" xmlns="http://www.w3.org/2000/svg"><defs><linearGradient id="sw-gradient-0" x1="0" x2="0" y1="1" y2="0"><stop stop-color="rgba(57, 130, 142, 1)" offset="0%"/><stop stop-color="rgba(57, 130, 142, 1)" offset="100%"/></linearGradient></defs><path style="transform:translate(0, 0px); opacity:1" fill="url(#sw-gradient-0)" d="M0,245L60,253.2C120,261,240,278,360,261.3C480,245,600,196,720,187.8C840,180,960,212,1080,220.5C1200,229,1320,212,1440,236.8C1560,261,1680,327,1800,302.2C1920,278,2040,163,2160,163.3C2280,163,2400,278,2520,285.8C2640,294,2760,196,2880,196C3000,196,3120,294,3240,310.3C3360,327,3480,261,3600,212.3C3720,163,3840,131,3960,106.2C4080,82,4200,65,4320,57.2C4440,49,4560,49,4680,40.8C4800,33,4920,16,5040,32.7C5160,49,5280,98,5400,171.5C5520,245,5640,343,5760,359.3C5880,376,6000,310,6120,236.8C6240,163,6360,82,6480,49C6600,16,6720,33,6840,32.7C6960,33,7080,16,7200,73.5C7320,131,7440,261,7560,261.3C7680,261,7800,131,7920,98C8040,65,8160,131,8280,155.2C8400,180,8520,163,8580,155.2L8640,147L8640,490L8580,490C8520,490,8400,490,8280,490C8160,490,8040,490,7920,490C7800,490,7680,490,7560,490C7440,490,7320,490,7200,490C7080,490,6960,490,6840,490C6720,490,6600,490,6480,490C6360,490,6240,490,6120,490C6000,490,5880,490,5760,490C5640,490,5520,490,5400,490C5280,490,5160,490,5040,490C4920,490,4800,490,4680,490C4560,490,4440,490,4320,490C4200,490,4080,490,3960,490C3840,490,3720,490,3600,490C3480,490,3360,490,3240,490C3120,490,3000,490,2880,490C2760,490,2640,490,2520,490C2400,490,2280,490,2160,490C2040,490,1920,490,1800,490C1680,490,1560,490,1440,490C1320,490,1200,490,1080,490C960,490,840,490,720,490C600,490,480,490,360,490C240,490,120,490,60,490L0,490Z"/></svg>