<?xml version="1.0" standalone="no"?>
<svg xmlns:xlink="http://www.w3.org/1999/xlink" id="wave" style="transform:rotate(0deg); transition: 0.3s" viewBox="0 0 1440 490" version="1.1" xmlns="http://www.w3.org/2000/svg"><defs><linearGradient id="sw-gradient-0" x1="0" x2="0" y1="1" y2="0"><stop stop-color="rgba(57, 130, 142, 1)" offset="0%"/><stop stop-color="rgba(57, 130, 142, 1)" offset="100%"/></linearGradient></defs><path style="transform:translate(0, 0px); opacity:1" fill="url(#sw-gradient-0)" d="M0,245L80,253.2C160,261,320,278,480,261.3C640,245,800,196,960,187.8C1120,180,1280,212,1440,220.5C1600,229,1760,212,1920,236.8C2080,261,2240,327,2400,302.2C2560,278,2720,163,2880,163.3C3040,163,3200,278,3360,285.8C3520,294,3680,196,3840,196C4000,196,4160,294,4320,310.3C4480,327,4640,261,4800,212.3C4960,163,5120,131,5280,106.2C5440,82,5600,65,5760,57.2C5920,49,6080,49,6240,40.8C6400,33,6560,16,6720,32.7C6880,49,7040,98,7200,171.5C7360,245,7520,343,7680,359.3C7840,376,8000,310,8160,236.8C8320,163,8480,82,8640,49C8800,16,8960,33,9120,32.7C9280,33,9440,16,9600,73.5C9760,131,9920,261,10080,261.3C10240,261,10400,131,10560,98C10720,65,10880,131,11040,155.2C11200,180,11360,163,11440,155.2L11520,147L11520,490L11440,490C11360,490,11200,490,11040,490C10880,490,10720,490,10560,490C10400,490,10240,490,10080,490C9920,490,9760,490,9600,490C9440,490,9280,490,9120,490C8960,490,8800,490,8640,490C8480,490,8320,490,8160,490C8000,490,7840,490,7680,490C7520,490,7360,490,7200,490C7040,490,6880,490,6720,490C6560,490,6400,490,6240,490C6080,490,5920,490,5760,490C5600,490,5440,490,5280,490C5120,490,4960,490,4800,490C4640,490,4480,490,4320,490C4160,490,4000,490,3840,490C3680,490,3520,490,3360,490C3200,490,3040,490,2880,490C2720,490,2560,490,2400,490C2240,490,2080,490,1920,490C1760,490,1600,490,1440,490C1280,490,1120,490,960,490C800,490,640,490,480,490C320,490,160,490,80,490L0,490Z"/></svg>